# 3ds Max Wavefront OBJ Exporter v0.97b - (c)2007 guruware
# File Created: 21.10.2013 22:32:40

#
# object BigBox
#

v  3.0795 4.6158 0.0000
v  -3.1158 4.6158 0.0000
v  -3.1158 4.6158 1.8432
v  3.0795 -4.5737 0.0000
v  3.0795 4.6158 1.8432
v  -3.1158 -4.5737 0.0000
v  3.0795 -4.5737 1.8432
v  -3.1158 -4.5737 1.8432
v  -3.0677 -4.5396 0.0323
v  3.0458 -4.5250 0.0323
v  3.0025 4.5671 0.0323
v  -3.0677 4.5817 1.8432
v  3.0458 4.5671 1.8432
v  -3.0821 -4.5250 1.8432
v  3.0314 -4.5396 1.8432
v  -3.0821 4.5671 0.0323
# 16 vertices

vn 0.0000 1.0000 0.0000
vn 1.0000 -0.0000 0.0000
vn -0.0000 -1.0000 0.0000
vn -1.0000 0.0000 0.0000
vn 0.0000 0.0000 -1.0000
vn 0.0000 0.0000 1.0000
vn 0.9999 0.0037 -0.0137
vn -0.0056 0.9999 -0.0139
vn -0.9998 -0.0111 -0.0138
vn -0.0056 -0.9999 0.0139
vn 0.9999 -0.0037 0.0137
vn 0.0056 0.9999 0.0139
vn -0.9992 0.0037 0.0409
# 13 vertex normals

vt 0.9867 0.0923 0.0000
vt 0.0142 0.0926 0.0000
vt 0.0139 0.0118 0.0000
vt 0.9868 0.0121 0.0000
vt 0.2113 0.0336 0.0000
vt 0.2133 0.0757 0.0000
vt 0.2064 0.0762 0.0000
vt 0.7663 0.0334 0.0000
vt 0.2064 0.0328 0.0000
vt 0.7684 0.0754 0.0000
vt 0.7732 0.0328 0.0000
vt 0.7732 0.0762 0.0000
vt 0.0141 0.0926 0.0000
# 13 texture coords

g BigBox
f 1/1/1 2/2/1 3/3/1 
f 4/1/2 1/2/2 5/3/2 
f 6/3/3 4/4/3 7/1/3 
f 2/1/4 6/2/4 8/3/4 
f 4/2/5 6/3/5 2/4/5 
f 9/4/6 10/1/6 11/2/6 
f 12/5/6 13/6/6 5/7/6 
f 14/8/6 12/5/6 3/9/6 
f 15/10/6 14/8/6 8/11/6 
f 13/6/6 15/10/6 7/12/6 
f 16/3/3 11/4/3 13/1/3 
f 9/3/7 16/4/7 12/1/7 
f 10/1/8 9/13/8 14/3/8 
f 11/1/9 10/2/9 15/3/9 
f 5/4/1 1/1/1 3/3/1 
f 7/4/2 4/1/2 5/3/2 
f 8/2/3 6/3/3 7/1/3 
f 3/4/4 2/1/4 8/3/4 
f 1/1/5 4/2/5 2/4/5 
f 16/3/6 9/4/6 11/2/6 
f 3/9/6 12/5/6 5/7/6 
f 8/11/6 14/8/6 3/9/6 
f 7/12/6 15/10/6 8/11/6 
f 5/7/6 13/6/6 7/12/6 
f 12/13/10 16/3/10 13/1/10 
f 14/2/11 9/3/11 12/1/11 
f 15/4/12 10/1/12 14/3/12 
f 13/4/13 11/1/13 15/3/13 
# 28 faces

#
# object BigBoxLid
#

v  -3.2611 4.7217 2.0147
v  3.2423 4.7217 2.0147
v  3.2423 4.7217 0.0355
v  -3.2611 -4.7455 2.0147
v  -3.2611 4.7217 0.0355
v  3.2423 -4.7455 2.0147
v  -3.2611 -4.7455 0.0355
v  3.2423 -4.7455 0.0355
v  3.1923 -4.7105 1.9824
v  -3.2261 -4.6955 1.9824
v  -3.1811 4.6717 1.9824
v  3.1923 4.6867 0.0355
v  -3.2261 4.6717 0.0355
v  3.2073 -4.6955 0.0355
v  -3.2111 -4.7105 0.0355
v  3.2073 4.6717 1.9824
# 16 vertices

vn -0.5774 0.5774 0.5774
vn 0.5774 0.5774 0.5774
vn 0.5773 0.5773 -0.5774
vn -0.5774 -0.5774 0.5774
vn -0.5774 0.5774 -0.5773
vn 0.5774 -0.5774 0.5774
vn -0.5773 -0.5773 -0.5774
vn 0.5774 -0.5774 -0.5774
vn -0.5743 0.5807 -0.5771
vn 0.5814 0.5738 -0.5768
vn 0.5704 -0.5785 -0.5831
vn -0.2992 -0.3025 -0.9050
vn 0.3000 -0.2951 -0.9071
vn -0.3024 0.2994 -0.9049
vn 0.2991 0.3016 -0.9053
vn -0.5802 -0.5747 -0.5771
# 16 vertex normals

vt 0.1649 0.8285 0.0000
vt 0.6363 0.8285 0.0000
vt 0.6363 0.9509 0.0000
vt 0.1652 0.1710 0.0000
vt 0.1652 0.8283 0.0000
vt 0.0338 0.8283 0.0000
vt 0.6363 0.1700 0.0000
vt 0.1647 0.1700 0.0000
vt 0.1647 0.0486 0.0000
vt 0.6366 0.8281 0.0000
vt 0.6366 0.1716 0.0000
vt 0.7586 0.1716 0.0000
vt 0.1651 0.1716 0.0000
vt 0.6364 0.1716 0.0000
vt 0.6364 0.8282 0.0000
vt 0.9842 0.8266 0.0000
vt 0.9835 0.9919 0.0000
vt 0.8147 0.9893 0.0000
vt 0.8225 0.3926 0.0000
vt 0.8231 0.6542 0.0000
vt 0.8211 0.6576 0.0000
vt 0.9848 0.3912 0.0000
vt 0.8211 0.3878 0.0000
vt 0.9854 0.6528 0.0000
vt 0.9868 0.3878 0.0000
vt 0.9868 0.6576 0.0000
vt 0.9855 0.8187 0.0000
vt 0.8145 0.8187 0.0000
vt 0.8117 0.7468 0.0000
vt 0.8107 0.6707 0.0000
vt 0.9873 0.6707 0.0000
vt 0.9880 0.7369 0.0000
vt 0.8116 0.7469 0.0000
vt 0.9844 0.7469 0.0000
vt 0.9853 0.8182 0.0000
vt 0.9881 0.7372 0.0000
vt 0.8113 0.7372 0.0000
vt 0.8107 0.6713 0.0000
vt 0.1649 0.9509 0.0000
vt 0.0338 0.1710 0.0000
vt 0.6363 0.0486 0.0000
vt 0.7586 0.8281 0.0000
vt 0.1651 0.8282 0.0000
vt 0.8147 0.8258 0.0000
vt 0.9845 0.7468 0.0000
vt 0.8113 0.7369 0.0000
vt 0.8126 0.8182 0.0000
vt 0.9881 0.6713 0.0000
# 48 texture coords

g BigBoxLid
f 17/14/14 18/15/15 19/16/16 
f 20/17/17 17/18/14 21/19/18 
f 22/20/19 20/21/17 23/22/20 
f 18/23/15 22/24/19 24/25/21 
f 20/26/17 22/27/19 18/28/15 
f 25/29/22 26/30/23 27/31/24 
f 28/32/25 29/33/26 21/34/18 
f 30/35/27 28/32/25 19/36/16 
f 31/37/28 30/35/27 24/38/21 
f 29/33/26 31/37/28 23/39/20 
f 32/40/29 27/41/24 29/42/26 
f 25/43/22 32/44/29 28/45/25 
f 26/46/23 25/47/22 30/48/27 
f 27/49/24 26/50/23 31/51/28 
f 21/52/18 17/14/14 19/16/16 
f 23/53/20 20/17/17 21/19/18 
f 24/54/21 22/20/19 23/22/20 
f 19/55/16 18/23/15 24/25/21 
f 17/56/14 20/26/17 18/28/15 
f 32/57/29 25/29/22 27/31/24 
f 19/36/16 28/32/25 21/34/18 
f 24/38/21 30/35/27 19/36/16 
f 23/39/20 31/37/28 24/38/21 
f 21/34/18 29/33/26 23/39/20 
f 28/58/25 32/40/29 29/42/26 
f 30/59/27 25/43/22 28/45/25 
f 31/60/28 26/46/23 30/48/27 
f 29/61/26 27/49/24 31/51/28 
# 28 faces

